<svg width="24.000000" height="24.000000" viewBox="0 0 24 24" fill="none" xmlns="http://www.w3.org/2000/svg" xmlns:xlink="http://www.w3.org/1999/xlink">
	<desc>
			Created with Pixso.
	</desc>
	<defs>
		<clipPath id="clip2_280">
			<rect id="IMAGE" rx="-0.500000" width="23.000000" height="23.000000" transform="translate(0.500000 0.500000)" fill="white" fill-opacity="0"/>
		</clipPath>
	</defs>
	<g clip-path="url(#clip2_280)">
		<path id="Vector" d="M7 2C4.23 2 2 4.23 2 7L2 17C2 19.76 4.23 22 7 22L17 22C19.76 22 22 19.76 22 17L22 7C22 4.23 19.76 2 17 2L7 2Z" stroke="#FFFFFF" stroke-opacity="1.000000" stroke-width="2.000000" stroke-linejoin="round"/>
		<path id="Vector" d="M15.59 13.79C15.2 14.54 14.59 15.15 13.84 15.52C13.09 15.9 12.23 16.03 11.4 15.9C10.57 15.77 9.8 15.37 9.21 14.78C8.61 14.18 8.22 13.42 8.09 12.59C7.96 11.76 8.09 10.9 8.47 10.15C8.84 9.4 9.45 8.79 10.2 8.4C10.94 8.01 11.79 7.87 12.63 8C13.47 8.12 14.26 8.52 14.87 9.12C15.47 9.73 15.87 10.52 16 11.36C16.12 12.2 15.98 13.05 15.59 13.79Z" stroke="#FFFFFF" stroke-opacity="1.000000" stroke-width="2.000000" stroke-linejoin="round"/>
		<path id="Vector" d="M17.5 6.5L17.51 6.5" stroke="#FFFFFF" stroke-opacity="1.000000" stroke-width="2.000000" stroke-linejoin="round" stroke-linecap="round"/>
	</g>
</svg>
