<svg width="68.000000" height="74.000000" viewBox="0 0 68 74" fill="none" xmlns="http://www.w3.org/2000/svg" xmlns:xlink="http://www.w3.org/1999/xlink">
	<desc>
			Created with Pixso.
	</desc>
	<defs>
		<clipPath id="clip2_78">
			<rect id="IMAGE" rx="-0.500000" width="67.000000" height="73.000000" transform="translate(0.500000 0.500000)" fill="white" fill-opacity="0"/>
		</clipPath>
	</defs>
	<g clip-path="url(#clip2_78)">
		<path id="Vector" d="M22.42 68.52C16.02 66.73 9.32 65.82 2.82 64.99C1.42 64.82 0.12 65.79 0.02 67.16C-0.18 68.52 0.82 69.78 2.12 69.95C8.42 70.75 14.92 71.6 21.02 73.33C22.32 73.71 23.72 72.94 24.12 71.61C24.52 70.28 23.72 68.9 22.42 68.52Z" fill="#118DA8" fill-opacity="1.000000" fill-rule="evenodd"/>
		<path id="Vector" d="M41.82 43.06C31.52 32.55 19.92 23.39 9.82 12.6C8.92 11.59 7.32 11.54 6.32 12.48C5.32 13.42 5.22 15 6.22 16.01C16.32 26.83 27.92 36.02 38.22 46.56C39.22 47.55 40.82 47.56 41.82 46.59C42.72 45.63 42.82 44.04 41.82 43.06Z" fill="#118DA8" fill-opacity="1.000000" fill-rule="evenodd"/>
		<path id="Vector" d="M61.12 2.63C61.42 8.65 61.72 14.66 62.02 20.68C62.02 22.06 63.22 23.12 64.62 23.05C66.02 22.99 67.02 21.81 67.02 20.43C66.72 14.41 66.42 8.38 66.12 2.36C66.02 0.98 64.82 -0.08 63.42 0C62.12 0.07 61.02 1.25 61.12 2.63Z" fill="#118DA8" fill-opacity="1.000000" fill-rule="evenodd"/>
	</g>
</svg>
