<svg width="147.000000" height="91.000000" viewBox="0 0 147 91" fill="none" xmlns="http://www.w3.org/2000/svg" xmlns:xlink="http://www.w3.org/1999/xlink">
	<desc>
			Created with Pixso.
	</desc>
	<defs>
		<clipPath id="clip2_178">
			<rect id="IMAGE" rx="-0.500000" width="146.000000" height="90.000000" transform="translate(0.500000 0.500000)" fill="white" fill-opacity="0"/>
		</clipPath>
	</defs>
	<g clip-path="url(#clip2_178)">
		<path id="Vector" d="M18.68 0.21C12.88 2.83 7.12 5.36 1.4 8.14C0.16 8.73 -0.35 10.2 0.24 11.43C0.83 12.67 2.31 13.18 3.54 12.59C9.23 9.83 14.94 7.32 20.7 4.72C21.95 4.16 22.5 2.7 21.95 1.46C21.38 0.21 19.92 -0.35 18.68 0.21Z" fill="#118DA8" fill-opacity="1.000000" fill-rule="evenodd"/>
		<path id="Vector" d="M61.3 31.1C52.87 49.39 45.38 68.1 37.35 86.56C36.8 87.81 37.38 89.27 38.62 89.81C39.87 90.35 41.32 89.79 41.87 88.53C49.88 70.11 57.36 51.43 65.78 33.18C66.35 31.94 65.81 30.47 64.58 29.9C63.33 29.32 61.87 29.87 61.3 31.1Z" fill="#118DA8" fill-opacity="1.000000" fill-rule="evenodd"/>
		<path id="Vector" d="M133.59 35.85C136.28 52.67 139.45 69.43 141.95 86.28C142.16 87.62 143.41 88.55 144.75 88.35C146.11 88.16 147.03 86.89 146.84 85.55C144.32 68.68 141.15 51.9 138.45 35.06C138.23 33.72 136.97 32.8 135.63 33.01C134.28 33.23 133.37 34.5 133.59 35.85Z" fill="#118DA8" fill-opacity="1.000000" fill-rule="evenodd"/>
	</g>
</svg>
