<svg width="159.154999" height="32.620003" viewBox="0 0 159.155 32.62" fill="none" xmlns="http://www.w3.org/2000/svg" xmlns:xlink="http://www.w3.org/1999/xlink">
	<desc>
			Created with Pixso.
	</desc>
	<defs/>
	<path id="Vector" d="M11.9 25.34C9.42 25.34 7.3 24.81 5.53 23.76C3.75 22.69 2.39 21.21 1.43 19.32C0.47 17.4 0 15.2 0 12.7C0 10.2 0.47 8 1.43 6.09C2.39 4.17 3.75 2.68 5.53 1.61C7.3 0.53 9.42 0 11.9 0C14.84 0 17.24 0.73 19.11 2.2C21 3.65 22.17 5.69 22.64 8.33L17.7 8.33C17.4 7 16.75 5.96 15.75 5.21C14.77 4.44 13.46 4.06 11.83 4.06C9.56 4.06 7.79 4.83 6.51 6.37C5.22 7.91 4.58 10.02 4.58 12.7C4.58 15.38 5.22 17.5 6.51 19.04C7.79 20.55 9.56 21.31 11.83 21.31C13.46 21.31 14.77 20.96 15.75 20.26C16.75 19.54 17.4 18.54 17.7 17.29L22.64 17.29C22.17 19.81 21 21.78 19.11 23.2C17.24 24.62 14.84 25.34 11.9 25.34ZM31.79 25.34C30.29 25.34 29.07 25.1 28.11 24.64C27.15 24.15 26.44 23.5 25.98 22.71C25.51 21.92 25.28 21.04 25.28 20.09C25.28 18.48 25.91 17.17 27.17 16.17C28.43 15.16 30.32 14.66 32.84 14.66L37.25 14.66L37.25 14.24C37.25 13.05 36.91 12.18 36.23 11.62C35.55 11.06 34.71 10.78 33.71 10.78C32.8 10.78 32.01 11 31.33 11.44C30.65 11.86 30.23 12.49 30.07 13.33L25.7 13.33C25.81 12.07 26.23 10.97 26.96 10.04C27.7 9.11 28.66 8.39 29.83 7.91C30.99 7.39 32.3 7.14 33.75 7.14C36.22 7.14 38.17 7.75 39.59 8.99C41.01 10.23 41.73 11.98 41.73 14.24L41.73 24.92L37.91 24.92L37.49 22.12C36.98 23.05 36.25 23.82 35.32 24.43C34.41 25.03 33.23 25.34 31.79 25.34ZM32.8 21.84C34.08 21.84 35.08 21.42 35.78 20.58C36.5 19.74 36.95 18.7 37.14 17.46L33.33 17.46C32.14 17.46 31.28 17.68 30.77 18.12C30.26 18.54 30 19.07 30 19.7C30 20.38 30.26 20.9 30.77 21.28C31.28 21.65 31.96 21.84 32.8 21.84ZM52.48 25.34C50.94 25.34 49.58 25.09 48.42 24.6C47.25 24.09 46.32 23.39 45.62 22.5C44.92 21.61 44.5 20.59 44.36 19.42L48.87 19.42C49.01 20.1 49.38 20.68 49.99 21.17C50.62 21.64 51.43 21.87 52.41 21.87C53.39 21.87 54.1 21.67 54.54 21.28C55.01 20.88 55.24 20.42 55.24 19.91C55.24 19.16 54.91 18.66 54.26 18.41C53.61 18.12 52.7 17.86 51.53 17.6C50.78 17.44 50.03 17.24 49.26 17.01C48.49 16.77 47.77 16.48 47.12 16.13C46.49 15.76 45.98 15.29 45.58 14.73C45.18 14.15 44.99 13.44 44.99 12.6C44.99 11.06 45.59 9.76 46.81 8.71C48.04 7.66 49.77 7.14 51.99 7.14C54.04 7.14 55.67 7.61 56.89 8.57C58.12 9.53 58.86 10.85 59.09 12.53L54.86 12.53C54.6 11.24 53.63 10.6 51.95 10.6C51.11 10.6 50.46 10.76 49.99 11.09C49.55 11.42 49.33 11.83 49.33 12.32C49.33 12.83 49.66 13.24 50.34 13.54C51.02 13.84 51.92 14.12 53.04 14.38C54.25 14.66 55.36 14.98 56.36 15.33C57.39 15.65 58.2 16.15 58.81 16.83C59.42 17.48 59.72 18.43 59.72 19.67C59.74 20.74 59.46 21.71 58.88 22.57C58.3 23.43 57.46 24.11 56.36 24.6C55.26 25.09 53.97 25.34 52.48 25.34ZM70.18 24.92C68.36 24.92 66.9 24.47 65.8 23.59C64.71 22.7 64.16 21.12 64.16 18.86L64.16 11.3L61.18 11.3L61.18 7.56L64.16 7.56L64.68 2.9L68.64 2.9L68.64 7.56L73.33 7.56L73.33 11.3L68.64 11.3L68.64 18.9C68.64 19.74 68.81 20.32 69.16 20.65C69.54 20.95 70.17 21.1 71.05 21.1L73.22 21.1L73.22 24.92L70.18 24.92ZM82.46 25.34C80.97 25.34 79.74 25.1 78.78 24.64C77.83 24.15 77.12 23.5 76.65 22.71C76.18 21.92 75.95 21.04 75.95 20.09C75.95 18.48 76.58 17.17 77.84 16.17C79.1 15.16 80.99 14.66 83.51 14.66L87.92 14.66L87.92 14.24C87.92 13.05 87.58 12.18 86.9 11.62C86.23 11.06 85.39 10.78 84.38 10.78C83.47 10.78 82.68 11 82 11.44C81.33 11.86 80.91 12.49 80.74 13.33L76.37 13.33C76.49 12.07 76.91 10.97 77.63 10.04C78.38 9.11 79.33 8.39 80.5 7.91C81.67 7.39 82.97 7.14 84.42 7.14C86.89 7.14 88.84 7.75 90.26 8.99C91.69 10.23 92.4 11.98 92.4 14.24L92.4 24.92L88.58 24.92L88.16 22.12C87.65 23.05 86.93 23.82 85.99 24.43C85.08 25.03 83.91 25.34 82.46 25.34ZM83.47 21.84C84.76 21.84 85.75 21.42 86.45 20.58C87.17 19.74 87.63 18.7 87.81 17.46L84 17.46C82.81 17.46 81.96 17.68 81.44 18.12C80.93 18.54 80.67 19.07 80.67 19.7C80.67 20.38 80.93 20.9 81.44 21.28C81.96 21.65 82.63 21.84 83.47 21.84ZM99.2 24.92L94.12 7.56L98.57 7.56L101.58 20.05L105.08 7.56L110.05 7.56L113.55 20.05L116.59 7.56L121.04 7.56L115.93 24.92L111.27 24.92L107.56 11.93L103.85 24.92L99.2 24.92ZM128.26 25.34C126.77 25.34 125.54 25.1 124.59 24.64C123.63 24.15 122.92 23.5 122.45 22.71C121.99 21.92 121.75 21.04 121.75 20.09C121.75 18.48 122.38 17.17 123.64 16.17C124.9 15.16 126.79 14.66 129.31 14.66L133.72 14.66L133.72 14.24C133.72 13.05 133.38 12.18 132.71 11.62C132.03 11.06 131.19 10.78 130.19 10.78C129.28 10.78 128.48 11 127.81 11.44C127.13 11.86 126.71 12.49 126.55 13.33L122.17 13.33C122.29 12.07 122.71 10.97 123.43 10.04C124.18 9.11 125.14 8.39 126.3 7.91C127.47 7.39 128.78 7.14 130.22 7.14C132.7 7.14 134.64 7.75 136.07 8.99C137.49 10.23 138.2 11.98 138.2 14.24L138.2 24.92L134.39 24.92L133.97 22.12C133.45 23.05 132.73 23.82 131.8 24.43C130.89 25.03 129.71 25.34 128.26 25.34ZM129.28 21.84C130.56 21.84 131.55 21.42 132.25 20.58C132.98 19.74 133.43 18.7 133.62 17.46L129.8 17.46C128.61 17.46 127.76 17.68 127.25 18.12C126.73 18.54 126.48 19.07 126.48 19.7C126.48 20.38 126.73 20.9 127.25 21.28C127.76 21.65 128.44 21.84 129.28 21.84ZM143.37 32.62L147.39 23.76L146.34 23.76L139.59 7.56L144.45 7.56L149.32 19.77L154.39 7.56L159.15 7.56L148.13 32.62L143.37 32.62Z" fill="#FFFFFF" fill-opacity="1.000000" fill-rule="nonzero"/>
</svg>
