<svg width="32.000000" height="32.000000" viewBox="0 0 32 32" fill="none" xmlns="http://www.w3.org/2000/svg" xmlns:xlink="http://www.w3.org/1999/xlink">
	<desc>
			Created with Pixso.
	</desc>
	<defs>
		<clipPath id="clip2_26">
			<rect id="IMAGE" rx="-0.500000" width="31.000000" height="31.000000" transform="translate(0.500000 0.500000)" fill="white" fill-opacity="0"/>
		</clipPath>
	</defs>
	<g clip-path="url(#clip2_26)">
		<path id="Vector" d="M29.65 16C29.65 23.73 23.39 30 15.65 30C7.92 30 1.65 23.73 1.65 16C1.65 8.26 7.92 2 15.65 2C23.39 2 29.65 8.26 29.65 16Z" fill="#FFFFFF" fill-opacity="1.000000" fill-rule="evenodd"/>
		<path id="Vector" d="M16.18 0C7.61 0 0.65 7.16 0.65 16C0.65 24.83 7.61 32 16.18 32C24.76 32 31.71 24.83 31.71 16C31.71 7.16 24.76 0 16.18 0ZM20.99 16.14C20.99 13.49 18.9 11.33 16.32 11.33C13.75 11.33 11.66 13.49 11.66 16.14C11.66 18.8 13.75 20.95 16.32 20.95L16.32 23.7C12.28 23.7 8.99 20.32 8.99 16.14C8.99 11.97 12.28 8.59 16.32 8.59C20.37 8.59 23.66 11.97 23.66 16.14L20.99 16.14ZM25.49 16.14C25.49 10.93 21.39 6.7 16.32 6.7C11.26 6.7 7.16 10.93 7.16 16.14C7.16 21.36 11.26 25.59 16.32 25.59L16.32 28.74C9.58 28.74 4.1 23.1 4.1 16.14C4.1 9.19 9.58 3.55 16.32 3.55C23.07 3.55 28.55 9.19 28.55 16.14L25.49 16.14Z" fill="#F43E37" fill-opacity="1.000000" fill-rule="nonzero"/>
	</g>
</svg>
