<svg width="32.000000" height="32.000000" viewBox="0 0 32 32" fill="none" xmlns="http://www.w3.org/2000/svg" xmlns:xlink="http://www.w3.org/1999/xlink">
	<desc>
			Created with Pixso.
	</desc>
	<defs>
		<clipPath id="clip2_33">
			<rect id="IMAGE" rx="-0.500000" width="31.000000" height="31.000000" transform="translate(0.500000 0.500000)" fill="white" fill-opacity="0"/>
		</clipPath>
		<linearGradient x1="15.829800" y1="0.000000" x2="15.829800" y2="32.000000" id="paint_linear_2_35_0" gradientUnits="userSpaceOnUse">
			<stop stop-color="#FF7602"/>
			<stop offset="1.000000" stop-color="#FF3502"/>
		</linearGradient>
	</defs>
	<g clip-path="url(#clip2_33)">
		<path id="Vector" d="M31.65 16C31.65 24.88 24.52 32 15.89 32C7.25 32 0 24.88 0 16C0 7.11 7.13 0 15.76 0C24.4 0 31.65 7.11 31.65 16Z" fill="url(#paint_linear_2_35_0)" fill-opacity="1.000000" fill-rule="nonzero"/>
		<path id="Vector" d="M4.67 17.06C4.67 17.01 4.71 16.97 4.76 16.97C4.8 16.97 4.84 17.01 4.85 17.06L5.04 18.34L4.85 19.6C4.84 19.65 4.8 19.69 4.76 19.69C4.71 19.69 4.67 19.65 4.67 19.6L4.5 18.34L4.67 17.06Z" fill="#FFFFFF" fill-opacity="1.000000" fill-rule="nonzero"/>
		<path id="Vector" d="M5.59 16.18C5.64 16.18 5.68 16.22 5.69 16.28L5.94 18.34L5.69 20.36C5.68 20.41 5.64 20.45 5.59 20.45C5.55 20.45 5.51 20.41 5.5 20.36L5.28 18.34L5.5 16.28C5.51 16.22 5.55 16.18 5.59 16.18Z" fill="#FFFFFF" fill-opacity="1.000000" fill-rule="nonzero"/>
		<path id="Vector" d="M9.03 14.54C9.03 14.45 9.11 14.37 9.2 14.37C9.29 14.37 9.36 14.45 9.37 14.54L9.57 18.34L9.37 20.8L9.37 20.8C9.36 20.89 9.29 20.97 9.2 20.97C9.11 20.97 9.03 20.89 9.03 20.8L8.85 18.34L9.03 14.54Z" fill="#FFFFFF" fill-opacity="1.000000" fill-rule="nonzero"/>
		<path id="Vector" d="M7.25 15.83C7.25 15.75 7.31 15.69 7.38 15.69C7.45 15.69 7.51 15.75 7.51 15.82L7.74 18.34L7.51 20.78C7.51 20.85 7.45 20.91 7.38 20.91C7.31 20.91 7.25 20.85 7.25 20.78L7.05 18.34L7.25 15.83Z" fill="#FFFFFF" fill-opacity="1.000000" fill-rule="nonzero"/>
		<path id="Vector" d="M11.25 20.76C11.25 20.88 11.15 20.97 11.04 20.97C10.93 20.97 10.84 20.88 10.83 20.76L10.68 18.34L10.83 13.29C10.84 13.17 10.93 13.08 11.04 13.08C11.16 13.08 11.25 13.17 11.25 13.29L11.43 18.34L11.25 20.76Z" fill="#FFFFFF" fill-opacity="1.000000" fill-rule="nonzero"/>
		<path id="Vector" d="M15.11 20.69C15.1 20.85 14.98 20.98 14.82 20.98C14.66 20.98 14.53 20.85 14.53 20.69C14.53 20.69 14.42 18.35 14.42 18.34L14.53 12.51C14.53 12.35 14.66 12.22 14.82 12.22C14.98 12.22 15.1 12.35 15.11 12.51L15.23 18.35L15.11 20.69Z" fill="#FFFFFF" fill-opacity="1.000000" fill-rule="nonzero"/>
		<path id="Vector" d="M13.17 20.72C13.16 20.86 13.05 20.97 12.92 20.97C12.78 20.97 12.67 20.86 12.67 20.72L12.54 18.34L12.67 13.25C12.67 13.11 12.78 13 12.92 13C13.05 13 13.16 13.11 13.16 13.25L13.31 18.34L13.17 20.72L13.17 20.72Z" fill="#FFFFFF" fill-opacity="1.000000" fill-rule="nonzero"/>
		<path id="Vector" d="M8.44 20.8C8.43 20.88 8.37 20.95 8.28 20.95C8.2 20.95 8.14 20.88 8.13 20.8L7.94 18.34L8.13 16.01C8.14 15.92 8.2 15.85 8.28 15.85C8.37 15.85 8.43 15.92 8.44 16.01L8.65 18.34L8.44 20.8Z" fill="#FFFFFF" fill-opacity="1.000000" fill-rule="nonzero"/>
		<path id="Vector" d="M6.6 20.7C6.59 20.77 6.54 20.81 6.48 20.81C6.42 20.81 6.38 20.77 6.37 20.7L6.16 18.34L6.37 15.89C6.38 15.83 6.42 15.78 6.48 15.78C6.54 15.78 6.59 15.83 6.6 15.89L6.84 18.34L6.6 20.7Z" fill="#FFFFFF" fill-opacity="1.000000" fill-rule="nonzero"/>
		<path id="Vector" d="M13.6 13.44C13.6 13.29 13.72 13.17 13.86 13.17C14.01 13.17 14.13 13.29 14.13 13.44L14.27 18.34L14.13 20.71L14.13 20.7C14.13 20.86 14.01 20.98 13.86 20.98C13.72 20.98 13.6 20.86 13.6 20.71L13.48 18.34L13.6 13.44Z" fill="#FFFFFF" fill-opacity="1.000000" fill-rule="nonzero"/>
		<path id="Vector" d="M10.31 20.78C10.3 20.89 10.22 20.97 10.12 20.97C10.01 20.97 9.93 20.89 9.93 20.78L9.76 18.34L9.92 13.68C9.93 13.57 10.01 13.48 10.12 13.48C10.22 13.48 10.3 13.57 10.31 13.68L10.49 18.34L10.31 20.78Z" fill="#FFFFFF" fill-opacity="1.000000" fill-rule="nonzero"/>
		<path id="Vector" d="M12.2 20.74L12.2 20.74C12.2 20.87 12.1 20.97 11.98 20.97C11.85 20.97 11.75 20.87 11.75 20.74L11.6 18.34L11.75 13.12C11.75 12.99 11.85 12.89 11.98 12.89C12.1 12.89 12.2 12.99 12.2 13.12L12.37 18.34L12.2 20.74L12.2 20.74C12.2 20.74 12.2 20.74 12.2 20.74L12.2 20.74Z" fill="#FFFFFF" fill-opacity="1.000000" fill-rule="nonzero"/>
		<path id="Vector" d="M23.29 15.55C23.62 15.41 23.98 15.33 24.36 15.33C25.9 15.33 27.15 16.6 27.15 18.16C27.15 19.72 25.9 20.99 24.36 20.99C24.31 20.99 16.65 20.98 16.64 20.98C16.47 20.96 16.34 20.82 16.34 20.65L16.34 11.67C16.34 11.51 16.4 11.42 16.61 11.34C17.15 11.13 17.76 11 18.39 11C20.96 11 23.06 13 23.29 15.55Z" fill="#FFFFFF" fill-opacity="1.000000" fill-rule="nonzero"/>
		<path id="Vector" d="M15.46 11.98C15.47 11.81 15.6 11.67 15.77 11.67C15.94 11.67 16.08 11.81 16.08 11.98L16.21 18.35L16.08 20.66L16.08 20.66C16.08 20.83 15.94 20.97 15.77 20.97C15.6 20.97 15.47 20.83 15.46 20.66L15.34 18.35L15.46 11.98Z" fill="#FFFFFF" fill-opacity="1.000000" fill-rule="nonzero"/>
	</g>
</svg>
