<svg width="32.000000" height="32.000000" viewBox="0 0 32 32" fill="none" xmlns="http://www.w3.org/2000/svg" xmlns:xlink="http://www.w3.org/1999/xlink">
	<desc>
			Created with Pixso.
	</desc>
	<defs>
		<clipPath id="clip2_50">
			<rect id="IMAGE" rx="-0.500000" width="31.000000" height="31.000000" transform="translate(0.500000 0.500000)" fill="white" fill-opacity="0"/>
		</clipPath>
	</defs>
	<g clip-path="url(#clip2_50)">
		<path id="Vector" d="M15.93 30C23.7 30 30 23.7 30 15.93C30 8.17 23.7 1.87 15.93 1.87C8.17 1.87 1.87 8.17 1.87 15.93C1.87 23.7 8.17 30 15.93 30Z" fill="#FFFFFF" fill-opacity="1.000000" fill-rule="nonzero"/>
		<path id="Vector" d="M30 15.93C30 8.17 23.7 1.87 15.93 1.87C8.17 1.87 1.87 8.17 1.87 15.93C1.87 23.7 8.17 30 15.93 30C23.7 30 30 23.7 30 15.93Z" stroke="#363F46" stroke-opacity="1.000000" stroke-width="2.425780"/>
		<path id="Vector" d="M8.3 9.99C8.3 9.99 6.35 12.19 6.35 16.02C6.35 19.85 8.3 21.96 8.3 21.96L8.3 9.99Z" fill="#FFFFFF" fill-opacity="1.000000" fill-rule="nonzero"/>
		<path id="Vector" d="M8.3 9.99C8.3 9.99 6.35 12.19 6.35 16.02C6.35 19.85 8.3 21.96 8.3 21.96" stroke="#FC7E0F" stroke-opacity="1.000000" stroke-width="2.425780" stroke-linecap="round"/>
		<path id="Vector" d="M23.79 9.99C23.79 9.99 25.74 12.19 25.74 16.02C25.74 19.85 23.79 21.96 23.79 21.96L23.79 9.99Z" fill="#FFFFFF" fill-opacity="1.000000" fill-rule="nonzero"/>
		<path id="Vector" d="M23.79 9.99C23.79 9.99 25.74 12.19 25.74 16.02C25.74 19.85 23.79 21.96 23.79 21.96" stroke="#FC7E0F" stroke-opacity="1.000000" stroke-width="2.425780" stroke-linecap="round"/>
		<path id="Vector" d="M20.69 12.56C20.69 12.56 22 14.19 21.97 16.01C21.93 18.21 20.71 19.41 20.71 19.41L20.69 12.56Z" fill="#FFFFFF" fill-opacity="1.000000" fill-rule="nonzero"/>
		<path id="Vector" d="M20.69 12.56C20.69 12.56 22 14.19 21.97 16.01C21.93 18.21 20.71 19.41 20.71 19.41" stroke="#FC7E0F" stroke-opacity="1.000000" stroke-width="2.425780" stroke-linecap="round"/>
		<path id="Vector" d="M11.34 12.56C11.34 12.56 10.03 14.19 10.06 16.01C10.1 18.21 11.32 19.41 11.32 19.41L11.34 12.56Z" fill="#FFFFFF" fill-opacity="1.000000" fill-rule="nonzero"/>
		<path id="Vector" d="M11.34 12.56C11.34 12.56 10.03 14.19 10.06 16.01C10.1 18.21 11.32 19.41 11.32 19.41" stroke="#FC7E0F" stroke-opacity="1.000000" stroke-width="2.425780" stroke-linecap="round"/>
		<path id="Vector" d="M15.93 18.12C17.14 18.12 18.11 17.14 18.11 15.93C18.11 14.73 17.14 13.75 15.93 13.75C14.73 13.75 13.75 14.73 13.75 15.93C13.75 17.14 14.73 18.12 15.93 18.12Z" fill="#363F46" fill-opacity="1.000000" fill-rule="nonzero"/>
		<path id="Vector" d="M16.3 17.97L14.75 17.56L12.17 27.19L13.72 27.6L16.3 17.97Z" fill="#363F46" fill-opacity="1.000000" fill-rule="nonzero"/>
		<path id="Vector" d="M15.7 17.96L17.24 17.55L19.81 27.19L18.26 27.6L15.7 17.96Z" fill="#363F46" fill-opacity="1.000000" fill-rule="nonzero"/>
		<path id="Vector" d="M14.27 23.16L14.84 22.57L18.81 26.44L18.24 27.02L14.27 23.16Z" fill="#363F46" fill-opacity="1.000000" fill-rule="nonzero"/>
		<path id="Vector" d="M17.63 23.18L17.11 22.65L13.18 26.56L13.69 27.09L17.63 23.18Z" fill="#363F46" fill-opacity="1.000000" fill-rule="nonzero"/>
	</g>
</svg>
