<svg width="32.000000" height="32.000000" viewBox="0 0 32 32" fill="none" xmlns="http://www.w3.org/2000/svg" xmlns:xlink="http://www.w3.org/1999/xlink">
	<desc>
			Created with Pixso.
	</desc>
	<defs>
		<clipPath id="clip2_30">
			<rect id="IMAGE" rx="-0.500000" width="31.000000" height="31.000000" transform="translate(0.500000 0.500000)" fill="white" fill-opacity="0"/>
		</clipPath>
		<linearGradient x1="16.000105" y1="0.000000" x2="16.000105" y2="32.000000" id="paint_linear_2_31_0" gradientUnits="userSpaceOnUse">
			<stop stop-color="#F452FF"/>
			<stop offset="1.000000" stop-color="#832BC1"/>
		</linearGradient>
	</defs>
	<g clip-path="url(#clip2_30)">
		<path id="Vector" d="M31.36 27.73C31.05 28.52 30.33 29.63 29.32 30.42C28.73 30.87 28.03 31.3 27.06 31.59C26.04 31.89 24.77 32 23.2 32L8.8 32C7.22 32 5.95 31.89 4.93 31.59C3.96 31.3 3.26 30.87 2.67 30.42C1.66 29.63 0.94 28.52 0.63 27.73C0 26.14 0 24.33 0 23.2L0 8.79C0 7.66 0 5.85 0.63 4.26C0.94 3.47 1.66 2.36 2.67 1.57C3.26 1.12 3.96 0.69 4.93 0.4C5.95 0.1 7.22 0 8.8 0L23.2 0C24.77 0 26.04 0.1 27.06 0.4C28.03 0.69 28.73 1.12 29.32 1.57C30.33 2.36 31.05 3.47 31.36 4.26C31.99 5.85 32 7.66 32 8.79L32 23.2C32 24.33 31.99 26.14 31.36 27.73Z" fill="url(#paint_linear_2_31_0)" fill-opacity="1.000000" fill-rule="evenodd"/>
		<path id="Vector" d="M18.32 18.39C17.84 17.88 16.99 17.56 16 17.56C15 17.56 14.16 17.88 13.68 18.39C13.43 18.65 13.29 18.92 13.25 19.31C13.17 20.06 13.22 20.7 13.3 21.73C13.39 22.71 13.55 24.02 13.75 25.35C13.9 26.3 14.02 26.81 14.13 27.18C14.31 27.77 14.97 28.29 16 28.29C17.03 28.29 17.69 27.77 17.86 27.18C17.97 26.81 18.09 26.3 18.24 25.35C18.45 24.02 18.61 22.71 18.69 21.73C18.78 20.7 18.82 20.06 18.74 19.31C18.7 18.92 18.57 18.65 18.32 18.39ZM13.38 13.88C13.38 15.32 14.55 16.5 16 16.5C17.45 16.5 18.62 15.32 18.62 13.88C18.62 12.43 17.45 11.26 16 11.26C14.55 11.26 13.38 12.43 13.38 13.88ZM15.97 3.54C9.84 3.56 4.82 8.53 4.75 14.65C4.69 19.61 7.85 23.86 12.28 25.41C12.38 25.45 12.49 25.36 12.47 25.25C12.42 24.86 12.36 24.48 12.31 24.1C12.29 23.96 12.21 23.85 12.08 23.79C8.59 22.27 6.15 18.76 6.19 14.7C6.24 9.37 10.59 5.03 15.92 4.98C21.37 4.94 25.81 9.36 25.81 14.8C25.81 18.82 23.38 22.28 19.91 23.79C19.79 23.85 19.7 23.96 19.69 24.1C19.64 24.48 19.58 24.87 19.52 25.25C19.51 25.36 19.62 25.45 19.72 25.41C24.1 23.87 27.25 19.7 27.25 14.8C27.25 8.58 22.19 3.52 15.97 3.54ZM15.76 8.7C19.24 8.57 22.1 11.36 22.1 14.8C22.1 16.55 21.36 18.13 20.18 19.24C20.07 19.34 20.02 19.47 20.03 19.61C20.05 20.03 20.04 20.44 20.02 20.89C20.01 21.02 20.15 21.1 20.25 21.03C22.24 19.67 23.54 17.38 23.54 14.8C23.54 10.54 20 7.1 15.71 7.27C11.72 7.42 8.52 10.71 8.47 14.7C8.43 17.33 9.75 19.65 11.76 21.03C11.86 21.1 12 21.02 11.99 20.9C11.96 20.44 11.96 20.03 11.98 19.61C11.99 19.47 11.93 19.34 11.83 19.24C10.61 18.1 9.86 16.45 9.91 14.63C9.99 11.44 12.57 8.83 15.76 8.7Z" fill="#FFFFFF" fill-opacity="1.000000" fill-rule="nonzero"/>
	</g>
</svg>
