<svg width="32.000000" height="32.000000" viewBox="0 0 32 32" fill="none" xmlns="http://www.w3.org/2000/svg" xmlns:xlink="http://www.w3.org/1999/xlink">
	<desc>
			Created with Pixso.
	</desc>
	<defs>
		<clipPath id="clip2_65">
			<rect id="IMAGE" rx="-0.500000" width="31.000000" height="31.000000" transform="translate(0.500000 0.500000)" fill="white" fill-opacity="0"/>
		</clipPath>
	</defs>
	<g clip-path="url(#clip2_65)">
		<path id="Vector" d="M15.99 0.05C7.19 0.05 0.04 7.19 0.04 16C0.04 24.81 7.19 31.95 15.99 31.95C24.8 31.95 31.95 24.81 31.95 16C31.95 7.19 24.8 0.05 15.99 0.05L15.99 0.05ZM23.31 23.05C23.02 23.52 22.41 23.67 21.94 23.38C18.2 21.1 13.48 20.58 7.93 21.85C7.39 21.97 6.86 21.63 6.74 21.1C6.62 20.56 6.95 20.03 7.49 19.91C13.56 18.52 18.78 19.12 22.98 21.69C23.45 21.97 23.6 22.58 23.31 23.05ZM25.26 18.71C24.9 19.3 24.14 19.48 23.55 19.12C19.26 16.48 12.73 15.72 7.66 17.26C7 17.46 6.3 17.09 6.1 16.43C5.91 15.77 6.28 15.08 6.93 14.88C12.73 13.12 19.93 13.97 24.85 17C25.44 17.36 25.62 18.13 25.26 18.71L25.26 18.71ZM25.43 14.19C20.29 11.13 11.81 10.85 6.9 12.34C6.11 12.58 5.28 12.14 5.04 11.35C4.8 10.56 5.24 9.73 6.03 9.49C11.67 7.78 21.03 8.11 26.95 11.62C27.66 12.04 27.9 12.96 27.47 13.67C27.06 14.37 26.14 14.61 25.43 14.19L25.43 14.19Z" fill="#1ED760" fill-opacity="1.000000" fill-rule="nonzero"/>
	</g>
</svg>
